<svg width="1925" height="719" viewBox="0 0 1925 719" fill="none" xmlns="http://www.w3.org/2000/svg" xmlns:xlink="http://www.w3.org/1999/xlink">
<path d="M1925 688.968C1834.1 701.731 1688.7 718.044 1509.51 718.96C1155.28 720.778 986.78 660.807 682.327 643.974C526.02 635.329 292.106 635.75 0 688.968V29.0766C297.475 -6.5671 538.04 -3.19072 703.288 6.57976C950.605 21.2108 1065.08 52.3032 1317 60.9482C1575.9 69.8282 1787.45 48.395 1925 29.0766V688.968Z" fill="url(#paint0_linear_2_270)"/>
<defs>
<linearGradient id="paint0_linear_2_270" x1="0" y1="359.5" x2="1925" y2="359.5" gradientUnits="userSpaceOnUse">
<stop offset="0.764423" stop-color="white"/>
<stop offset="1" stop-color="white" stop-opacity="0"/>
</linearGradient>
<g id="stroke0_2_270" data-figma-scatter-ref="stroke0_2_270_ref" data-figma-scatter="f0.51_w0.06_aj180_sj0.65_r0_s14717945507239052327_sw4">
</g>
<path id="stroke0_2_270_ref" d="M1925 688.968C1834.1 701.731 1688.7 718.044 1509.51 718.96C1155.28 720.778 986.78 660.807 682.327 643.974C526.02 635.329 292.106 635.75 0 688.968V29.0766C297.475 -6.5671 538.04 -3.19072 703.288 6.57976C950.605 21.2108 1065.08 52.3032 1317 60.9482C1575.9 69.8282 1787.45 48.395 1925 29.0766V688.968Z"/>
</defs>
</svg>
