<svg width="45" height="30" viewBox="0 0 45 30" fill="none" xmlns="http://www.w3.org/2000/svg">
<path d="M2 12.7275C0.89543 12.7275 -9.65645e-08 13.623 0 14.7275C9.65645e-08 15.8321 0.895431 16.7275 2 16.7275L2 14.7275L2 12.7275ZM44.4142 16.1417C45.1953 15.3607 45.1953 14.0944 44.4142 13.3133L31.6863 0.585401C30.9052 -0.195648 29.6389 -0.195648 28.8579 0.585401C28.0768 1.36645 28.0768 2.63278 28.8579 3.41383L40.1716 14.7275L28.8579 26.0412C28.0768 26.8223 28.0768 28.0886 28.8579 28.8697C29.6389 29.6507 30.9052 29.6507 31.6863 28.8697L44.4142 16.1417ZM2 14.7275L2 16.7275L43 16.7275L43 14.7275L43 12.7275L2 12.7275L2 14.7275Z" fill="#1CA8CB"/>
</svg>
