<svg width="3121" height="4956" viewBox="0 0 3121 4956" fill="none" xmlns="http://www.w3.org/2000/svg">
<path d="M3092 4945.97H0V0C401.763 258.909 889.87 468.873 1445.96 491.609C2089.04 517.916 2646.99 286.69 3092 0V4946V4945.97Z" fill="#E5F4F7"/>
<path d="M3092.21 4904.34H0V3863C229.95 3876.95 563.15 3924.11 923.12 4085.82C1221.53 4219.88 1383.29 4363 1545.34 4473.28C1841.55 4674.85 2317.59 4888.4 3092.21 4904.35V4904.34Z" fill="#60BBD2" fill-opacity="0.3"/>
<path d="M28 4737.06V4955.33H3120.21V4434.66C2972.5 4351.06 2745.04 4248.98 2460.84 4232.3C1887.24 4198.65 1598.93 4543.2 865.99 4688.93C642.53 4733.36 361.92 4762.45 28 4737.06Z" fill="#8DD1E3"/>
</svg>
