<svg width="3121" height="4946" viewBox="0 0 3121 4946" fill="none" xmlns="http://www.w3.org/2000/svg">
<path d="M3092 2328.5H0V0C401.763 258.909 889.87 468.873 1445.96 491.609C2089.04 517.916 2646.99 286.69 3092 0V4946V2328.5Z" fill="#E5F4F7"/>
<path d="M3092.21 2291.34H0V1250C229.95 1263.95 563.15 1311.11 923.12 1472.82C1221.53 1606.88 1383.29 1750 1545.34 1860.28C1841.55 2061.85 2317.59 2275.4 3092.21 2291.35V2291.34Z" fill="#60BBD2" fill-opacity="0.3"/>
<path d="M28 2124.06V2342.33H3120.21V1821.66C2972.5 1738.06 2745.04 1635.98 2460.84 1619.3C1887.24 1585.65 1598.93 1930.2 865.99 2075.93C642.53 2120.36 361.92 2149.45 28 2124.06Z" fill="#8DD1E3"/>
</svg>
