<svg width="132" height="132" viewBox="0 0 132 132" fill="none" xmlns="http://www.w3.org/2000/svg">
<circle cx="66" cy="66" r="66" fill="#1CA8CB"/>
<path fill-rule="evenodd" clip-rule="evenodd" d="M43.5969 46H89.4032C90.554 46 91.6003 46.4986 92.3553 47.2996L92.4104 47.3565C87.0548 52.7482 81.6992 58.1414 76.3805 63.5675C75.7669 64.1948 75.1915 64.7833 74.6471 65.3357L74.592 65.3911L74.3856 65.5993L74.3149 65.6726C70.5782 69.4458 68.4503 71.3368 66.4994 71.3368C65.463 71.3368 64.3772 70.8023 63.027 69.7377L62.9054 69.6419C61.7404 68.7061 60.379 67.3825 58.6837 65.6726L58.3134 65.2954C57.7802 64.7563 57.2189 64.1829 56.6209 63.5705L53.5091 60.4068L41.2612 48.0543L40.5784 47.37L40.6418 47.2996C41.4011 46.4986 42.4459 46 43.5969 46ZM94.2456 49.8255C94.4096 50.2972 94.5 50.8032 94.5 51.3348V82.6652C94.5 83.1967 94.4096 83.7058 94.2427 84.1774L93.813 83.7432L93.8185 83.7402L81.736 71.5584C80.6135 70.4294 79.6055 69.3994 78.6821 68.4531C78.1831 67.9425 77.7066 67.4559 77.2571 66.9993C77.7095 66.5425 78.1804 66.0575 78.6779 65.5513L80.68 63.5076L94.2456 49.8255ZM92.4118 86.6359L92.3525 86.7003C91.5918 87.5014 90.5484 88 89.4004 88H43.6011C42.453 88 41.4068 87.5014 40.649 86.6988L40.5897 86.633L53.5106 73.5947C54.6331 72.4658 55.6667 71.4087 56.6154 70.4384L58.1125 68.9112L58.2313 69.0325L58.2836 69.0849L58.4405 69.2406L58.4546 69.2556L58.6229 69.4218L58.6441 69.4443L58.7926 69.588L58.9552 69.7497L59.0484 69.8395L59.1177 69.9084L59.2435 70.0312L59.2789 70.0642C62.3214 73.0138 64.3418 74.4886 66.4994 74.4886C68.7332 74.4886 70.82 72.9074 74.0435 69.7497L74.1523 69.6434L74.2088 69.588L74.3544 69.4428L74.3757 69.4218L74.544 69.2556L74.5609 69.2392L74.715 69.0849L74.889 68.9112L76.3833 70.4384C77.3319 71.4087 78.3684 72.4658 79.488 73.5947L92.4118 86.6359ZM38.7601 84.4454C38.5905 83.9663 38.5 83.4497 38.5 82.9092V51.0892C38.5 50.5532 38.5905 50.0381 38.7573 49.562L53.2151 64.1469L54.5723 65.5319C55.0755 66.0455 55.5535 66.5351 56.0102 66.9993C55.5535 67.4619 55.07 67.956 54.5653 68.4755C53.625 69.4338 52.6015 70.4804 51.4605 71.6303L39.1927 84.0022L39.1956 84.0037L38.7601 84.4454Z" fill="white"/>
</svg>
