<svg width="132" height="132" viewBox="0 0 132 132" fill="none" xmlns="http://www.w3.org/2000/svg">
<circle cx="66" cy="66" r="66" fill="#1CA8CB"/>
<path d="M35.1949 47.0954C32.0132 60.9567 42.4014 76.4428 52.7037 85.8996L52.7571 85.9496L52.8107 85.9996C63.1332 95.4339 79.2167 104.19 92.0373 99.1584C96.0953 97.5651 98.2352 95.3525 100.206 91.9581L101.801 88.8632C102.682 87.1445 102.154 85.0835 100.603 84.1912L86.2009 75.9246C84.6291 75.021 82.5782 75.6477 81.5862 77.3327L79.4693 80.9347C78.9347 81.8397 78.2651 82.659 77.4636 83.3164C73.9287 86.2139 69.1811 84.619 60.6155 76.7826L60.5597 76.7335L60.5062 76.6834C51.952 68.8356 49.8299 64.1421 52.1468 60.127C52.6723 59.2174 53.3699 58.4225 54.1646 57.7596L57.3322 55.1197C58.8147 53.8816 59.154 51.6887 58.0952 50.1793L48.3886 36.367C47.3412 34.8773 45.3082 34.5935 43.7826 35.7208L41.031 37.7559C38.0409 40.2169 36.2018 42.7048 35.1949 47.0954Z" fill="white"/>
</svg>
