<svg width="46" height="46" viewBox="0 0 46 46" fill="none" xmlns="http://www.w3.org/2000/svg">
<path fill-rule="evenodd" clip-rule="evenodd" d="M23.0004 46C35.6682 46 46 35.6681 46 22.9996C46 10.3318 35.6682 0 23.0004 0C10.3318 0 0 10.3318 0 22.9996C0 35.6681 10.3318 46 23.0004 46Z" fill="#FEC05D"/>
<path fill-rule="evenodd" clip-rule="evenodd" d="M12.4574 13H34.5426C35.0975 13 35.6019 13.2374 35.9659 13.6189L35.9925 13.646C33.4104 16.2134 30.8282 18.7816 28.2638 21.3655C27.968 21.6642 27.6905 21.9444 27.4281 22.2075L27.4015 22.2339L27.302 22.333L27.2679 22.3679C25.4663 24.1647 24.4403 25.0651 23.4997 25.0651C23 25.0651 22.4765 24.8106 21.8255 24.3037L21.7669 24.2581C21.2052 23.8124 20.5488 23.1822 19.7314 22.3679L19.5529 22.1883C19.2958 21.9316 19.0252 21.6585 18.7369 21.3669L17.2365 19.8604L11.3313 13.9782L11.0021 13.6524L11.0327 13.6189C11.3987 13.2374 11.9025 13 12.4574 13ZM36.8773 14.8217C36.9564 15.0463 37 15.2873 37 15.5404V30.4596C37 30.7127 36.9564 30.9552 36.876 31.1797L36.6688 30.973L36.6714 30.9715L30.8459 25.1707C30.3047 24.6331 29.8187 24.1426 29.3735 23.6919C29.1329 23.4488 28.9032 23.2171 28.6865 22.9997C28.9046 22.7822 29.1316 22.5512 29.3715 22.3102L30.3368 21.337L36.8773 14.8217ZM35.9932 32.3504L35.9646 32.3811C35.5978 32.7626 35.0948 33 34.5412 33H12.4595C11.9059 33 11.4015 32.7626 11.0361 32.3804L11.0075 32.349L17.2372 26.1403C17.7784 25.6027 18.2768 25.0994 18.7342 24.6374L19.456 23.9101L19.5133 23.9679L19.5385 23.9928L19.6142 24.067L19.621 24.0741L19.7021 24.1532L19.7123 24.1639L19.7839 24.2324L19.8623 24.3094L19.9073 24.3522L19.9407 24.385L20.0013 24.4434L20.0184 24.4591C21.4853 25.8637 22.4594 26.566 23.4997 26.566C24.5767 26.566 25.5829 25.8131 27.137 24.3094L27.1895 24.2588L27.2168 24.2324L27.287 24.1632L27.2972 24.1532L27.3783 24.0741L27.3865 24.0663L27.4608 23.9928L27.5447 23.9101L28.2652 24.6374C28.7225 25.0994 29.2223 25.6027 29.7621 26.1403L35.9932 32.3504ZM10.1254 31.3073C10.0436 31.0792 10 30.8332 10 30.5758V15.4234C10 15.1682 10.0436 14.9229 10.1241 14.6962L17.0948 21.6414L17.7492 22.3009C17.9918 22.5455 18.2222 22.7786 18.4424 22.9997C18.2222 23.2199 17.9891 23.4552 17.7458 23.7026C17.2924 24.159 16.7989 24.6573 16.2488 25.2049L10.334 31.0963L10.3354 31.097L10.1254 31.3073Z" fill="#1CA8CB"/>
</svg>
