<svg width="46" height="46" viewBox="0 0 46 46" fill="none" xmlns="http://www.w3.org/2000/svg">
<path fill-rule="evenodd" clip-rule="evenodd" d="M23.0004 46C35.6682 46 46 35.6681 46 22.9996C46 10.3318 35.6682 0 23.0004 0C10.3318 0 0 10.3318 0 22.9996C0 35.6681 10.3318 46 23.0004 46Z" fill="#FEC05D"/>
<path d="M13.4626 9.17137C10.4426 14.1523 12.5905 21.5193 15.4699 26.5296L15.4847 26.556L15.4996 26.5824C18.3898 31.5866 23.6477 37.0716 29.3638 36.7714C31.1732 36.6761 32.3016 36.092 33.5131 35.0263L34.5375 34.0284C35.1047 33.4737 35.1572 32.6037 34.6563 32.0562L30.0022 26.9789C29.4944 26.4242 28.6027 26.4029 27.9959 26.9302L26.7002 28.0578C26.3736 28.3407 26.0044 28.5729 25.6035 28.725C23.8357 29.3953 22.158 28.1612 19.7607 24.0057L19.7449 23.9793L19.73 23.953C17.3387 19.7944 17.0941 17.6943 18.5215 16.4319C18.8451 16.1459 19.2223 15.9269 19.6211 15.7717L21.2108 15.1542C21.9551 14.8642 22.3679 14.055 22.1402 13.331L20.0497 6.70323C19.8241 5.98834 19.055 5.61517 18.3077 5.8565L16.9595 6.29254C15.4629 6.86341 14.4187 7.59355 13.4626 9.17137Z" fill="#1CA8CB"/>
</svg>
