<svg width="31" height="23" viewBox="0 0 31 23" fill="none" xmlns="http://www.w3.org/2000/svg">
<path fill-rule="evenodd" clip-rule="evenodd" d="M2.8215 0H28.1786C28.8156 0 29.3948 0.273042 29.8127 0.711694L29.8433 0.742852C26.8786 3.69543 23.9139 6.64884 20.9696 9.62028C20.6299 9.96383 20.3114 10.2861 20.01 10.5886L19.9795 10.619L19.8652 10.7329L19.8261 10.7731C17.7576 12.8394 16.5797 13.8749 15.4996 13.8749C14.9259 13.8749 14.3249 13.5822 13.5774 12.9992L13.5101 12.9468C12.8652 12.4343 12.1116 11.7095 11.1731 10.7731L10.9681 10.5665C10.673 10.2713 10.3623 9.95729 10.0312 9.62193L8.3086 7.88942L1.52851 1.12495L1.15053 0.750229L1.18567 0.711694C1.60597 0.273042 2.18436 0 2.8215 0ZM30.8592 2.09494C30.95 2.35322 31 2.63034 31 2.92144V20.0785C31 20.3696 30.95 20.6484 30.8576 20.9067L30.6197 20.6689L30.6228 20.6673L23.9342 13.9963C23.3128 13.378 22.7548 12.8139 22.2437 12.2957C21.9674 12.0161 21.7037 11.7497 21.4548 11.4996C21.7053 11.2495 21.9659 10.9839 22.2413 10.7067L23.3496 9.5875L30.8592 2.09494ZM29.844 22.253L29.8112 22.2883C29.3901 22.727 28.8125 23 28.177 23H2.82384C2.18829 23 1.60912 22.727 1.18963 22.2875L1.1568 22.2514L8.30941 15.1114C8.9308 14.4932 9.50298 13.9143 10.0282 13.383L10.8569 12.5466L10.9227 12.613L10.9516 12.6417L11.0385 12.727L11.0463 12.7352L11.1394 12.8262L11.1512 12.8385L11.2334 12.9172L11.3234 13.0058L11.375 13.055L11.4134 13.0927L11.483 13.1599L11.5026 13.178C13.1868 14.7933 14.3053 15.6009 15.4996 15.6009C16.7362 15.6009 17.8914 14.735 19.6759 13.0058L19.7361 12.9476L19.7674 12.9172L19.848 12.8377L19.8597 12.8262L19.9529 12.7352L19.9623 12.7262L20.0476 12.6417L20.1439 12.5466L20.9711 13.383C21.4962 13.9143 22.07 14.4932 22.6898 15.1114L29.844 22.253ZM0.143979 21.0534C0.0501054 20.7911 0 20.5082 0 20.2122V2.78697C0 2.4934 0.0501054 2.21136 0.142459 1.95062L8.14587 9.93761L8.89719 10.696C9.17573 10.9773 9.44031 11.2454 9.69313 11.4996C9.44031 11.7529 9.17269 12.0235 8.8933 12.308C8.37279 12.8328 7.80617 13.4059 7.17456 14.0357L0.383462 20.8107L0.385055 20.8116L0.143979 21.0534Z" fill="#FFA310"/>
</svg>
