<svg width="37" height="36" viewBox="0 0 37 36" fill="none" xmlns="http://www.w3.org/2000/svg">
<path d="M0.318465 6.58016C-1.41702 14.1409 4.24926 22.5878 9.86868 27.7461L9.89783 27.7734L9.92708 27.8007C15.5575 32.9466 24.3303 37.7225 31.3234 34.9782C33.5368 34.1091 34.7041 32.9022 35.7791 31.0507L36.6489 29.3626C37.1296 28.4252 36.8414 27.301 35.9956 26.8143L28.1399 22.3052C27.2825 21.8123 26.1639 22.1542 25.6228 23.0733L24.4681 25.038C24.1765 25.5316 23.8113 25.9785 23.3741 26.3371C21.446 27.9175 18.8564 27.0476 14.1842 22.7732L14.1538 22.7464L14.1246 22.7191C9.45866 18.4385 8.30116 15.8784 9.56491 13.6883C9.8516 13.1922 10.2321 12.7586 10.6655 12.397L12.3933 10.9571C13.202 10.2817 13.387 9.08561 12.8095 8.2623L7.51503 0.728318C6.9437 -0.0842493 5.83479 -0.239046 5.00265 0.37583L3.50175 1.48591C1.87081 2.82825 0.86767 4.18533 0.318465 6.58016Z" fill="#FFA310"/>
</svg>
