<svg width="1924" height="1215" viewBox="0 0 1924 1215" fill="none" xmlns="http://www.w3.org/2000/svg">
<path d="M1923.34 1133.64C1833.09 1118.72 1678.06 1098.23 1485.14 1101.05C1068.82 1107.13 889.734 1215.79 510.965 1209.67C397.867 1207.86 220.415 1195.05 0.337891 1133.64V79.9887C232.655 163.375 419.559 174.491 543.558 170.508C904.619 158.886 1063.82 8.40571 1427.2 0.331361C1641.26 -4.41187 1815.45 42.7308 1923.34 79.9887V1133.64Z" fill="#1CA8CB"/>
<path d="M1923.34 954.887L0.337891 1139.57V498.624C85.2251 485.914 221.61 471.937 387.111 485.48C810.533 520.206 971.942 698.257 1282.41 710.026C1428.83 715.566 1647.85 685.62 1923.34 498.624V954.887Z" fill="#31AECD"/>
<path d="M0.337891 152.821C232.655 236.249 419.559 247.371 543.558 243.386C904.619 231.757 1063.82 81.2019 1427.2 73.1235C1641.26 68.3779 1815.45 115.544 1923.34 152.821" stroke="#FFA310" stroke-width="2" stroke-miterlimit="10"/>
<path d="M0.337891 1138.56C220.415 1199.98 397.867 1212.79 510.965 1214.6C889.734 1220.72 1068.82 1112.06 1485.14 1105.98C1678.06 1103.15 1833.09 1123.65 1923.34 1138.56V522.998C1813.43 474.295 1643.98 420.017 1455.59 456.77C1190.57 508.441 1081.6 702.49 840.519 870.612C677.842 984.057 415.865 1113 0.337891 1138.56Z" fill="#8DD1E3"/>
</svg>
