<svg width="154" height="221" viewBox="0 0 154 221" fill="none" xmlns="http://www.w3.org/2000/svg">
<path d="M48.8906 5.09082L40.918 29.1475L41.8271 29.5518L54.3281 7.5127L65.917 12.6621L62.0938 24.2031L63.0029 24.6064L68.9951 14.0215L95.9443 25.9902L95.9463 25.9912L97.4014 26.6318L91.3848 44.7637L92.2939 45.168L101.707 28.5488L115.895 34.8574L113.314 42.627L114.224 43.0303L118.26 35.9092L127.265 39.9004L123.441 51.4404L124.351 51.8447L130.343 41.2734L143.118 46.9395L137.926 62.6016L138.836 63.0049L146.965 48.6494L152.944 51.3115L125.902 105.479L71.4033 81.2705L16.8896 57.0615L38.9434 0.668945L48.8906 5.09082Z" stroke="#FFA310"/>
<path d="M125.484 106.397L111.658 137.524L2.64857 89.1043L16.4747 57.9773L125.484 106.397Z" stroke="#FFA310"/>
<path d="M56.7646 114.226L111.26 138.434C111.225 138.511 111.188 138.599 111.144 138.694C110.932 139.144 110.608 139.782 110.164 140.523C109.274 142.008 107.908 143.899 105.998 145.54C104.091 147.179 101.646 148.567 98.5908 149.062C95.7281 149.527 92.2946 149.215 88.2207 147.55L87.3975 147.198C78.3901 143.2 70.8782 140.553 64.7598 140.833C61.6801 140.974 58.9424 141.857 56.5479 143.681C54.1591 145.5 52.1436 148.231 50.4619 152.02V152.021C48.7806 155.812 47.123 162.681 45.1641 170.574C43.1975 178.498 40.9163 187.506 37.9824 195.658C35.0437 203.824 31.4737 211.062 26.9658 215.496C24.7191 217.706 22.2566 219.202 19.5381 219.784C16.8238 220.365 13.8083 220.046 10.4336 218.547C7.05897 217.048 4.79978 215.025 3.41113 212.621C2.02042 210.213 1.47828 207.382 1.61133 204.233C1.87835 197.915 4.85517 190.413 8.94238 182.757C13.023 175.113 18.1755 167.381 22.7334 160.609C27.2739 153.864 31.257 148.028 32.9385 144.24C34.6234 140.452 35.3011 137.126 35.0508 134.135C34.7998 131.136 33.6195 128.513 31.6592 126.134C27.7646 121.407 20.7604 117.61 11.7461 113.605C7.30911 111.634 4.53917 109.146 2.85938 106.547C1.17878 103.947 0.568691 101.203 0.505859 98.6885C0.442984 96.1701 0.929398 93.8877 1.43457 92.2314C1.68671 91.4049 1.94192 90.7373 2.13379 90.2783C2.17551 90.1785 2.21604 90.0892 2.25098 90.0098L56.7646 114.226ZM24.2598 188.306C22.1201 187.355 19.7038 187.676 17.5518 188.89C15.3993 190.103 13.479 192.222 12.2734 194.943C11.0608 197.665 10.7787 200.512 11.3213 202.923C11.8639 205.334 13.2441 207.342 15.3779 208.287V208.286C17.5179 209.238 19.9345 208.917 22.0869 207.703C24.2393 206.489 26.1597 204.371 27.3652 201.649C28.5779 198.928 28.86 196.081 28.3174 193.67C27.7747 191.259 26.3946 189.251 24.2607 188.306H24.2598Z" stroke="#FFA310"/>
<path d="M15.6328 68.043C15.7699 67.7308 16.1406 67.5839 16.4668 67.7256V67.7266L118.28 112.94L118.282 112.941C118.595 113.079 118.741 113.451 118.598 113.777C118.46 114.09 118.09 114.236 117.764 114.094H117.765L15.9512 68.8799L15.9492 68.8789L15.8398 68.8164C15.6043 68.6488 15.5075 68.3288 15.6328 68.043Z" stroke="#FFA310"/>
<path d="M9.68164 81.4531C9.8187 81.1409 10.1894 80.9941 10.5156 81.1357V81.1367L112.329 126.351L112.331 126.352C112.644 126.489 112.79 126.861 112.646 127.188C112.509 127.5 112.139 127.646 111.812 127.504H111.813L10 82.29L9.99805 82.2891L9.88867 82.2266C9.65312 82.0589 9.55629 81.7389 9.68164 81.4531Z" stroke="#FFA310"/>
<path d="M7.85156 85.5742C7.98862 85.262 8.35936 85.1152 8.68555 85.2568V85.2578L110.499 130.472L110.501 130.473C110.814 130.61 110.96 130.982 110.816 131.309C110.679 131.621 110.309 131.767 109.982 131.625H109.983L8.16992 86.4111L8.16797 86.4102L8.05859 86.3477C7.82304 86.18 7.72621 85.86 7.85156 85.5742Z" stroke="#FFA310"/>
<path d="M152.917 51.3105L125.875 105.478L71.376 81.2695L16.876 57.0605L19.4297 50.5479C36.0844 57.9374 94.6648 83.946 105.026 88.5557L105.024 88.5674C106.343 89.1524 107.815 89.1326 109.355 88.6768C110.892 88.2222 112.526 87.3265 114.21 86.1162C117.578 83.6956 121.232 79.9517 124.823 75.6992C130.862 68.5472 136.778 59.8865 140.923 53.4668L137.898 62.6006L138.809 63.0049L146.937 48.6494L152.917 51.3105Z" stroke="#FFA310"/>
<g opacity="0.1" style="mix-blend-mode:multiply">
<path d="M105.543 97.5389L125.5 106.404L111.674 137.531L91.7166 128.666L105.543 97.5389Z" stroke="#FFA310"/>
</g>
<path d="M111.248 138.441C111.213 138.521 111.175 138.611 111.129 138.709C110.917 139.159 110.594 139.797 110.149 140.538C109.26 142.023 107.893 143.914 105.983 145.556C104.076 147.195 101.632 148.581 98.5771 149.077C95.5235 149.573 91.8198 149.184 87.3828 147.213C78.3758 143.215 70.8643 140.564 64.7461 140.843C61.6663 140.983 58.9279 141.865 56.5332 143.689C54.1444 145.51 52.1299 148.243 50.4482 152.035C48.7668 155.826 47.1095 162.697 45.1504 170.59C43.1839 178.513 40.9016 187.52 37.9678 195.673C35.0291 203.839 31.46 211.078 26.9521 215.512C24.7055 217.721 22.2428 219.218 19.5244 219.8C16.9796 220.345 14.17 220.097 11.0479 218.829L10.4189 218.562L9.80859 218.28C6.82058 216.84 4.77145 214.956 3.4668 212.746C2.41169 210.959 1.83104 208.936 1.64941 206.722C3.07777 209.074 5.40527 211.491 8.4541 212.929C12.4272 214.801 17.5735 214.989 23.4307 211.313C26.7916 209.203 29.4809 205.291 31.7363 200.432C33.997 195.561 35.8523 189.669 37.5088 183.521C39.1647 177.376 40.6313 170.938 42.1006 164.993C43.4812 159.408 44.8643 154.256 46.4189 150.132L46.7324 149.321C50.0836 140.878 54.7681 137.497 59.9395 136.5C65.1738 135.491 70.9861 136.901 76.6689 138.288V138.295C79.5857 139.008 81.9938 138.796 83.9619 138.053C85.9254 137.311 87.4181 136.052 88.5312 134.718C89.6432 133.385 90.3845 131.967 90.8477 130.888C91.0711 130.367 91.2298 129.921 91.3359 129.598L111.248 138.441Z" stroke="#FFA310"/>
<path d="M12.4111 96.791C10.7121 100.799 10.367 104.297 10.4619 106.83C10.5111 108.144 10.6778 109.197 10.834 109.926C10.8345 109.928 10.8354 109.931 10.8359 109.934C4.38008 106.395 2.54379 102.104 2.29297 98.6943C2.15983 96.884 2.47103 95.291 2.81738 94.1484C2.99032 93.578 3.17116 93.122 3.30762 92.8115C3.31544 92.7937 3.32354 92.7766 3.33105 92.7598L12.4111 96.791Z" stroke="#FFA310"/>
<path d="M37.4062 137.421C37.4102 138.016 37.3566 138.744 37.1982 139.627C36.4852 143.602 33.7381 150.635 25.5039 162.711C13.0157 181.028 8.37496 188.41 4.60742 197.755C4.70492 197.381 4.82476 196.965 4.97168 196.504C6.19557 192.662 9.26292 185.741 16.6514 173.504C24.0473 161.254 29.172 154.55 32.54 149.356C35.3417 145.036 36.8953 141.798 37.4062 137.421Z" stroke="#FFA310"/>
<path opacity="0.15" d="M27.9665 63.0831L14.1404 94.2101L2.672 89.1161L16.4981 57.989L27.9665 63.0831Z" stroke="#FFA310"/>
</svg>
